<?xml version="1.0" encoding="UTF-8"?>
<svg xmlns="http://www.w3.org/2000/svg" xmlns:xlink="http://www.w3.org/1999/xlink" viewBox="0 0 50 50" width="50px" height="50px">
<g id="surface99711932">
<path style=" stroke:none;fill-rule:nonzero;fill:rgb(100%,100%,100%);fill-opacity:1;" d="M 25 3.332031 C 13.054688 3.332031 3.332031 13.054688 3.332031 25 C 3.332031 36.945312 13.054688 46.667969 25 46.667969 C 36.945312 46.667969 46.667969 36.945312 46.667969 25 C 46.667969 13.054688 36.945312 3.332031 25 3.332031 Z M 19.445312 10 L 30.554688 10 C 35.761719 10 40 14.238281 40 19.445312 L 40 30.554688 C 40 35.761719 35.761719 40 30.558594 40 L 19.445312 40 C 14.238281 40 10 35.761719 10 30.558594 L 10 19.445312 C 10 14.238281 14.238281 10 19.445312 10 Z M 19.445312 13.332031 C 16.074219 13.332031 13.332031 16.078125 13.332031 19.445312 L 13.332031 30.558594 C 13.332031 33.925781 16.078125 36.667969 19.445312 36.667969 L 30.558594 36.667969 C 33.925781 36.667969 36.667969 33.921875 36.667969 30.554688 L 36.667969 19.445312 C 36.667969 16.074219 33.921875 13.332031 30.554688 13.332031 Z M 32.78125 16.109375 C 33.394531 16.109375 33.890625 16.605469 33.890625 17.21875 C 33.890625 17.832031 33.394531 18.332031 32.78125 18.332031 C 32.167969 18.332031 31.667969 17.832031 31.667969 17.21875 C 31.667969 16.605469 32.167969 16.109375 32.78125 16.109375 Z M 25 16.667969 C 29.59375 16.667969 33.332031 20.40625 33.332031 25 C 33.332031 29.59375 29.59375 33.332031 25 33.332031 C 20.40625 33.332031 16.667969 29.59375 16.667969 25 C 16.667969 20.40625 20.40625 16.667969 25 16.667969 Z M 25 20 C 22.238281 20 20 22.238281 20 25 C 20 27.761719 22.238281 30 25 30 C 27.761719 30 30 27.761719 30 25 C 30 22.238281 27.761719 20 25 20 Z M 25 20 "/>
</g>
</svg>
